<?xml version="1.0" encoding="UTF-8"?>
<svg xmlns="http://www.w3.org/2000/svg" xmlns:xlink="http://www.w3.org/1999/xlink" width="682.76pt" height="141.73pt" viewBox="0 0 682.76 141.73" version="1.1">
<defs>
<clipPath id="clip1">
  <path d="M 625 0 L 682.761719 0 L 682.761719 95 L 625 95 Z M 625 0 "/>
</clipPath>
<clipPath id="clip2">
  <path d="M 0 26 L 107 26 L 107 141.730469 L 0 141.730469 Z M 0 26 "/>
</clipPath>
</defs>
<g id="surface1">
<g clip-path="url(#clip1)" clip-rule="nonzero">
<path style=" stroke:none;fill-rule:evenodd;fill:rgb(13.699341%,12.199402%,12.5%);fill-opacity:1;" d="M 653.246094 94.21875 C 654.820313 91.082031 659.933594 87.929688 662.355469 85.253906 C 665.664063 81.613281 668.65625 77.6875 671.308594 73.535156 C 676.765625 64.996094 681.207031 55.21875 682.480469 45.085938 C 684.070313 32.359375 678.800781 17.175781 668.871094 8.710938 C 656.839844 -1.578125 625.054688 -6.976563 625.671875 17.140625 C 625.671875 17.140625 625.898438 26.078125 637.816406 32.492188 C 637.816406 32.492188 661.195313 47.164063 661.195313 62.746094 C 661.195313 62.746094 664.546875 71.613281 653.246094 94.21875 "/>
</g>
<path style=" stroke:none;fill-rule:nonzero;fill:rgb(13.699341%,12.199402%,12.5%);fill-opacity:1;" d="M 195.460938 137.621094 L 219.910156 43.496094 L 256.582031 43.496094 L 230.910156 137.621094 L 195.460938 137.621094 "/>
<path style=" stroke:none;fill-rule:nonzero;fill:rgb(13.699341%,12.199402%,12.5%);fill-opacity:1;" d="M 386.277344 70.097656 L 368.730469 137.621094 L 404.183594 137.621094 L 422.605469 70.082031 L 442.101563 70.082031 L 449.132813 43.804688 L 429.851563 43.496094 C 429.851563 43.496094 434.765625 18.734375 457.984375 27.601563 L 465.320313 4.683594 C 465.320313 4.683594 406.304688 -16.703125 393.183594 43.496094 L 372.496094 70.097656 L 386.277344 70.097656 "/>
<path style=" stroke:none;fill-rule:nonzero;fill:rgb(13.699341%,12.199402%,12.5%);fill-opacity:1;" d="M 271.234375 81.242188 L 256.582031 137.621094 L 292.035156 137.621094 L 310.914063 68.40625 C 310.914063 68.40625 319.253906 40.136719 288.683594 40.136719 C 288.683594 40.136719 268.699219 38.195313 248.515625 68.578125 C 248.515625 68.578125 276.980469 59.125 271.234375 81.242188 "/>
<path style=" stroke:none;fill-rule:nonzero;fill:rgb(13.699341%,12.199402%,12.5%);fill-opacity:1;" d="M 333.277344 81.242188 L 318.621094 137.621094 L 354.074219 137.621094 L 372.953125 68.40625 C 372.953125 68.40625 381.292969 40.136719 350.722656 40.136719 C 350.722656 40.136719 330.742188 38.195313 310.558594 68.578125 C 310.558594 68.578125 339.019531 59.125 333.277344 81.242188 "/>
<g clip-path="url(#clip2)" clip-rule="nonzero">
<path style=" stroke:none;fill-rule:evenodd;fill:rgb(13.699341%,12.199402%,12.5%);fill-opacity:1;" d="M 97.378906 110.417969 L 69.875 137.925781 C 65.117188 142.695313 51.910156 141.949219 46.238281 141.117188 C 29.449219 138.597656 11.488281 128.039063 4.140625 112.453125 C -2.9375 97.457031 -0.546875 76.226563 8.308594 62.1875 C 23.40625 38.261719 46.582031 25.269531 75.089844 27.085938 C 85.589844 27.753906 96.632813 30.402344 106.546875 33.867188 C 106.546875 33.867188 98.609375 62.703125 98.59375 62.746094 C 99.613281 60.570313 87.695313 57.492188 86.535156 57.175781 C 75.230469 54.039063 63.988281 54.253906 54.992188 62.402344 C 47.429688 69.265625 42.742188 79.292969 42.988281 89.636719 C 42.988281 89.648438 43.589844 114.703125 68.039063 114.703125 C 68.039063 114.703125 79.660156 116.222656 97.378906 110.417969 "/>
</g>
<path style=" stroke:none;fill-rule:evenodd;fill:rgb(13.699341%,12.199402%,12.5%);fill-opacity:1;" d="M 132.273438 90.324219 C 129.4375 104.820313 135.066406 116.59375 144.894531 116.59375 C 154.703125 116.59375 164.976563 104.820313 167.828125 90.324219 C 170.675781 75.796875 165.03125 64.050781 155.207031 64.050781 C 145.394531 64.050781 135.136719 75.796875 132.273438 90.324219 Z M 155.207031 40.421875 C 184.054688 40.421875 205.128906 62.761719 202.292969 90.324219 C 199.457031 117.871094 173.742188 140.214844 144.894531 140.214844 C 116.042969 140.214844 94.972656 117.871094 97.808594 90.324219 C 100.644531 62.761719 126.355469 40.421875 155.207031 40.421875 "/>
<path style=" stroke:none;fill-rule:evenodd;fill:rgb(13.699341%,12.199402%,12.5%);fill-opacity:1;" d="M 477.152344 80.167969 C 477.152344 80.167969 507.792969 80.167969 507.863281 80.167969 C 508.910156 80.167969 507.363281 71.742188 507.132813 71.15625 C 504.382813 64.109375 496.003906 62.976563 489.730469 65.398438 C 483.3125 67.863281 479.058594 73.648438 477.152344 80.167969 Z M 534.96875 112.066406 C 524.78125 128.710938 505.699219 140.214844 485.015625 140.214844 C 456.167969 140.214844 435.097656 117.871094 437.933594 90.324219 C 440.769531 62.761719 466.480469 40.421875 495.332031 40.421875 C 524.179688 40.421875 545.253906 62.761719 542.414063 90.324219 C 542.171875 92.699219 541.757813 95.066406 541.167969 97.371094 C 541.167969 97.371094 473.972656 97.371094 473.871094 97.371094 C 473.371094 97.371094 474.546875 105.148438 474.675781 105.507813 C 477.253906 113.441406 486.019531 115.878906 493.46875 116.824219 C 500.546875 117.710938 507.765625 118.167969 514.898438 117.582031 C 517.949219 117.339844 521 116.882813 523.949219 116.078125 C 525.527344 115.621094 527.101563 115.089844 528.59375 114.386719 C 529.480469 113.988281 531.6875 112.066406 532.546875 112.066406 L 534.96875 112.066406 "/>
<path style=" stroke:none;fill-rule:evenodd;fill:rgb(13.699341%,12.199402%,12.5%);fill-opacity:1;" d="M 578.457031 80.167969 C 578.457031 80.167969 609.097656 80.167969 609.167969 80.167969 C 610.214844 80.167969 608.667969 71.742188 608.4375 71.15625 C 605.6875 64.109375 597.308594 62.976563 591.03125 65.398438 C 584.617188 67.863281 580.359375 73.648438 578.457031 80.167969 Z M 636.269531 112.066406 C 626.085938 128.710938 607.007813 140.214844 586.320313 140.214844 C 557.472656 140.214844 536.398438 117.871094 539.234375 90.324219 C 542.070313 62.761719 567.785156 40.421875 596.636719 40.421875 C 625.484375 40.421875 646.554688 62.761719 643.71875 90.324219 C 643.476563 92.699219 643.0625 95.066406 642.472656 97.371094 C 642.472656 97.371094 575.277344 97.371094 575.175781 97.371094 C 574.675781 97.371094 575.851563 105.148438 575.980469 105.507813 C 578.558594 113.441406 587.324219 115.878906 594.773438 116.824219 C 601.847656 117.710938 609.066406 118.167969 616.203125 117.582031 C 619.253906 117.339844 622.304688 116.882813 625.253906 116.078125 C 626.832031 115.621094 628.40625 115.089844 629.894531 114.386719 C 630.785156 113.988281 632.988281 112.066406 633.851563 112.066406 L 636.269531 112.066406 "/>
</g>
</svg>
